<svg width="70" height="75" viewBox="0 0 70 75" fill="none" xmlns="http://www.w3.org/2000/svg">
<path d="M15.9737 61.0078C22.3249 66.505 28.3297 68.8222 38.8755 68.7059C46.2064 68.4126 49.6666 67.206 55.2341 64.087C61.6822 55.8271 63.0283 52.2164 64.6645 45.419C66.0728 36.2334 65.6556 32.6979 64.6645 29.0605C63.2134 22.5871 57.2767 15.3415 52.5399 13.2793" stroke="#7A6408" stroke-width="0.621541"/>
<path d="M12.7462 46.5213C12.0421 41.2089 13.1956 35.0376 17.1857 29.6149L17.1962 29.6007L17.2045 29.5863C24.0163 17.8212 38.5143 11.1624 50.2517 16.6081C54.8772 20.4982 56.8824 25.1318 56.8994 30.2528C56.9165 35.4014 54.9247 41.0679 51.5011 46.981C48.117 52.8259 41.8143 56.6394 35.4639 58.486C32.2923 59.4082 29.1212 59.8362 26.3157 59.784C23.5047 59.7317 21.086 59.1981 19.4009 58.2225C16.0147 56.2619 13.4519 51.8458 12.7462 46.5213Z" stroke="#7A6408" stroke-width="0.621541"/>
<path d="M33.6791 28.2907C38.5049 27.4835 40.1237 27.7879 41.9547 29.2529C45.1304 32.3874 43.9731 40.7804 39.2603 43.687C34.5475 46.5935 29.2516 47.161 27.1357 45.9964C25.7628 45.105 25.5082 43.1425 25.981 36.9511M21.3621 35.9888C22.9015 33.102 26.1242 29.5396 29.2527 25.9812C32.3812 22.4228 44.9585 19.2264 48.1132 28.2907C48.9163 35.7253 48.5195 39.5368 44.2641 44.8417C39.7963 48.4811 36.8668 50.2031 29.6376 51.77C20.1405 54.9487 19.8228 38.8756 21.3621 35.9888Z" stroke="#7A6408" stroke-width="0.621541"/>
<path d="M9.34332 48.1252C8.57243 41.972 9.87076 34.7849 14.251 28.4047L14.2558 28.3985C18.5609 21.7974 24.6293 16.0681 31.364 12.9603C38.083 9.85962 45.4513 9.37263 52.4205 13.2059C57.6435 17.634 60.0401 23.0356 60.1596 29.0274C60.2796 35.0416 58.1055 41.6732 54.1404 48.5218C50.2129 55.3051 42.8253 59.7049 35.4093 61.8378C31.7051 62.9032 28.0067 63.3998 24.7509 63.347C21.4892 63.294 18.6987 62.6909 16.7895 61.5856C12.9567 59.3665 10.1159 54.291 9.34332 48.1252Z" stroke="#7A6408" stroke-width="0.621541"/>
<path d="M45.2266 68.1286C43.1066 68.0509 38.2452 67.6083 36.5662 64.2795M55.0418 64.2795C51.9098 63.0889 50.2408 62.2834 48.4984 58.8908" stroke="#7A6408" stroke-width="0.621541"/>
<path d="M57.7362 60.8154C57.4784 58.1031 57.136 56.5616 55.0419 54.6568" stroke="#7A6408" stroke-width="0.621541"/>
<path d="M62.1626 53.3097C61.9368 50.9736 61.5363 49.9409 60.4305 48.4983" stroke="#7A6408" stroke-width="0.621541"/>
</svg>
