<svg width="101" height="100" viewBox="0 0 101 100" fill="none" xmlns="http://www.w3.org/2000/svg">
<path d="M80.1885 48.0667C80.9815 56.3745 79.3993 62.5705 73.2319 71.0416C68.7726 76.8078 65.803 78.9143 60.0715 81.6256C49.6707 82.0892 45.9723 81.0997 39.5268 78.5097C31.279 74.3599 28.6568 71.986 26.2828 69.0888C21.8775 64.186 19.4303 55.2069 20.4887 50.1843" stroke="#7A6408" stroke-width="0.617527"/>
<path d="M70.3189 37.1105C66.4233 33.4811 60.7623 30.8613 54.0741 30.9689L54.0574 30.9693L54.0409 30.9677C40.5921 29.707 26.8504 37.6107 24.5008 50.2508C24.9869 56.235 27.5839 60.5266 31.7196 63.4892C35.8781 66.4681 41.6135 68.1184 48.3724 68.752C55.0533 69.3782 61.7696 66.4719 66.9218 62.3941C69.4951 60.3573 71.6684 58.0357 73.2419 55.7342C74.8182 53.4284 75.7792 51.1628 75.9598 49.2368C76.3224 45.3663 74.2231 40.7482 70.3189 37.1105Z" stroke="#7A6408" stroke-width="0.617527"/>
<path d="M43.5039 43.5595C40.0713 47.0016 39.3855 48.4874 39.5171 50.8136C40.2259 55.1898 47.6875 59.0864 52.7547 56.9447C57.822 54.803 61.3314 50.8423 61.607 48.4586C61.6759 46.8336 60.2337 45.4973 54.9488 42.3145M56.8298 38.0208C53.6061 37.6046 48.8659 38.1622 44.1833 38.6458C39.5007 39.1294 29.6697 47.4712 35.1914 55.2454C40.748 60.1772 44.0624 62.051 50.8079 61.6609C56.3274 60.1396 59.4086 58.7596 64.8405 53.8091C72.8834 47.9508 60.0534 38.4371 56.8298 38.0208Z" stroke="#7A6408" stroke-width="0.617527"/>
<path d="M73.5766 35.2795C69.0389 31.1117 62.4725 28.0245 54.7843 27.8966L54.7775 27.8959C46.9539 27.5798 38.8205 29.1942 32.4259 32.8568C26.0462 36.5109 21.4082 42.1954 20.498 50.0451C21.0751 56.8241 24.0679 61.8756 28.8502 65.423C33.6503 68.9837 40.2709 71.0428 48.099 71.7767C55.8528 72.5035 63.6704 69.0564 69.6682 64.2805C72.664 61.895 75.195 59.1858 77.0272 56.5195C78.8629 53.8481 79.982 51.2414 80.1866 49.0591C80.597 44.6781 78.1236 39.4557 73.5766 35.2795Z" stroke="#7A6408" stroke-width="0.617527"/>
<path d="M69.1069 75.851C70.2649 74.0899 72.7062 69.8991 70.9781 66.6228M60.3381 81.5808C61.1779 78.3594 61.4869 76.5444 59.7437 73.1798" stroke="#7A6408" stroke-width="0.617527"/>
<path d="M55.9818 81.7672C53.9345 79.9965 52.8836 78.8315 52.5475 76.0392" stroke="#7A6408" stroke-width="0.617527"/>
<path d="M47.356 81.0283C45.5948 79.5002 44.9893 78.5812 44.4582 76.8552" stroke="#7A6408" stroke-width="0.617527"/>
</svg>
